<?xml version="1.0" encoding="UTF-8" standalone="no"?>
<!DOCTYPE svg PUBLIC "-//W3C//DTD SVG 1.1//EN" "http://www.w3.org/Graphics/SVG/1.1/DTD/svg11.dtd">
<svg xmlns="http://www.w3.org/2000/svg" version="1.1" viewBox="0.00 0.00 512.00 512.00">
<path fill="#000000" d="
  M 352.54 0.00
  L 364.87 0.00
  Q 390.89 4.94 400.61 27.27
  C 408.49 45.40 404.18 64.94 390.18 78.93
  Q 301.81 167.23 213.54 255.62
  Q 213.16 255.99 213.54 256.37
  Q 301.67 344.61 389.76 432.71
  C 405.73 448.68 408.47 471.63 396.73 490.72
  C 383.76 511.79 354.73 517.76 334.12 504.89
  Q 329.01 501.70 319.09 491.77
  Q 223.57 396.23 128.04 300.70
  C 105.17 277.83 100.74 247.28 120.05 220.67
  Q 123.67 215.69 132.78 206.58
  Q 224.67 114.64 316.61 22.74
  Q 328.53 10.82 331.04 8.95
  Q 340.42 1.96 352.54 0.00
  Z"
/>
</svg>
