<?xml version="1.0" encoding="UTF-8" standalone="no"?>
<!DOCTYPE svg PUBLIC "-//W3C//DTD SVG 1.1//EN" "http://www.w3.org/Graphics/SVG/1.1/DTD/svg11.dtd">
<svg xmlns="http://www.w3.org/2000/svg" version="1.1" viewBox="0.00 0.00 512.00 512.00">
<path fill="#000000" d="
  M 159.40 512.00
  L 147.17 512.00
  Q 125.66 508.16 114.78 491.17
  C 105.29 476.35 105.00 457.46 114.28 442.53
  Q 117.42 437.47 127.39 427.50
  Q 212.93 341.98 298.54 256.35
  Q 298.89 256.00 298.54 255.65
  Q 212.94 170.03 127.20 84.30
  Q 117.78 74.88 114.59 69.60
  C 105.24 54.13 105.99 34.57 116.38 19.79
  C 131.15 -1.22 160.40 -6.07 181.02 9.12
  Q 183.97 11.30 195.54 22.86
  Q 290.71 117.99 385.84 213.17
  Q 391.49 218.83 396.13 227.24
  C 410.84 253.94 404.17 280.81 383.34 301.59
  Q 284.48 400.23 185.72 498.97
  Q 175.09 509.59 159.40 512.00
  Z"
/>
</svg>
