<?xml version="1.0" encoding="UTF-8" standalone="no"?>
<!DOCTYPE svg PUBLIC "-//W3C//DTD SVG 1.1//EN" "http://www.w3.org/Graphics/SVG/1.1/DTD/svg11.dtd">
<svg xmlns="http://www.w3.org/2000/svg" version="1.1" viewBox="0.00 0.00 512.00 512.00">
<path fill="#000000" d="
  M 494.26 0.00
  L 497.78 0.00
  Q 509.81 2.29 512.00 14.33
  L 512.00 17.59
  C 511.62 18.24 511.79 19.17 511.60 19.76
  Q 431.87 258.97 352.12 498.17
  C 349.48 506.10 345.93 510.65 337.74 512.00
  L 334.00 512.00
  Q 328.29 510.91 325.55 508.17
  Q 278.82 461.43 231.99 414.62
  Q 231.61 414.25 231.17 414.54
  Q 208.15 429.70 185.26 445.04
  C 176.95 450.60 165.38 447.79 161.47 438.73
  Q 160.01 435.33 160.00 427.56
  Q 159.99 385.91 160.00 344.32
  A 1.24 1.21 19.8 0 0 159.54 343.37
  Q 82.62 281.75 5.59 220.16
  Q 1.06 216.53 0.00 209.68
  L 0.00 206.21
  C 1.33 198.22 5.55 194.97 13.22 191.91
  Q 252.08 96.36 490.95 0.81
  C 491.92 0.42 493.20 0.36 494.26 0.00
  Z
  M 428.52 60.26
  L 48.00 212.45
  Q 47.46 212.67 47.93 213.05
  L 174.40 314.28
  Q 174.79 314.59 175.14 314.24
  L 428.76 60.62
  A 0.22 0.22 0.0 0 0 428.52 60.26
  Z
  M 329.14 465.95
  L 459.12 76.02
  A 0.19 0.19 0.0 0 0 458.81 75.82
  L 199.06 335.58
  Q 198.61 336.03 199.06 336.47
  L 328.68 466.06
  A 0.28 0.28 0.0 0 0 329.14 465.95
  Z
  M 192.00 401.55
  A 0.31 0.31 0.0 0 0 192.48 401.81
  L 208.17 391.34
  A 0.31 0.31 0.0 0 0 208.21 390.86
  L 192.53 375.18
  A 0.31 0.31 0.0 0 0 192.00 375.40
  L 192.00 401.55
  Z"
/>
</svg>
