<?xml version="1.0" encoding="UTF-8" standalone="no"?>
<svg
   version="1.1"
   viewBox="0.00 0.00 980.00 980.00"
   id="svg30"
   sodipodi:docname="shopping-cart-icon-isolated-on-white-background-free-vector.svg"
   inkscape:version="1.2.1 (9c6d41e410, 2022-07-14)"
   xmlns:inkscape="http://www.inkscape.org/namespaces/inkscape"
   xmlns:sodipodi="http://sodipodi.sourceforge.net/DTD/sodipodi-0.dtd"
   xmlns="http://www.w3.org/2000/svg"
   xmlns:svg="http://www.w3.org/2000/svg">
  <defs
     id="defs34" />
  <sodipodi:namedview
     id="namedview32"
     pagecolor="#ffffff"
     bordercolor="#999999"
     borderopacity="1"
     inkscape:showpageshadow="0"
     inkscape:pageopacity="0"
     inkscape:pagecheckerboard="0"
     inkscape:deskcolor="#d1d1d1"
     showgrid="false"
     inkscape:zoom="0.82040816"
     inkscape:cx="477.20149"
     inkscape:cy="490.60945"
     inkscape:window-width="1920"
     inkscape:window-height="991"
     inkscape:window-x="-9"
     inkscape:window-y="-9"
     inkscape:window-maximized="1"
     inkscape:current-layer="svg30" />
  <path
     fill="#000000"
     d="   M 403.18 580.31   L 420.85 629.45   A 0.45 0.45 0.0 0 0 421.27 629.74   Q 585.51 629.75 748.50 629.81   C 751.50 629.81 754.44 629.84 757.08 631.28   C 767.96 637.22 763.84 653.49 751.69 653.49   Q 582.72 653.51 413.75 653.49   C 405.74 653.49 402.76 648.87 400.12 641.53   Q 322.35 425.91 244.38 209.45   A 0.32 0.31 78.8 0 0 244.09 209.25   Q 206.09 209.25 168.00 209.25   C 158.76 209.25 154.91 197.34 159.81 190.32   C 162.45 186.54 166.92 185.75 171.76 185.75   Q 209.92 185.75 248.07 185.75   C 256.03 185.75 261.18 186.59 263.95 194.27   Q 284.50 251.15 305.04 308.03   Q 305.21 308.50 305.71 308.50   Q 557.00 308.49 808.25 308.50   C 811.98 308.50 815.25 308.82 818.17 311.18   C 823.67 315.64 822.94 320.87 821.06 327.59   Q 787.28 448.48 753.34 569.32   C 750.78 578.44 745.68 579.77 736.47 579.76   Q 570.01 579.69 403.56 579.78   Q 402.99 579.78 403.18 580.31   Z   M 795.13 332.63   A 0.50 0.50 0.0 0 0 794.65 332.00   L 317.83 332.01   A 0.50 0.50 0.0 0 0 317.36 332.68   L 397.83 555.92   A 0.50 0.50 0.0 0 0 398.30 556.25   L 732.10 556.25   A 0.50 0.50 0.0 0 0 732.58 555.88   L 795.13 332.63   Z"
     id="path18" />
  <path
     fill="#000000"
     d="   M 531.53 739.38   A 54.85 54.85 0.0 0 1 476.68 794.23   A 54.85 54.85 0.0 0 1 421.83 739.38   A 54.85 54.85 0.0 0 1 476.68 684.53   A 54.85 54.85 0.0 0 1 531.53 739.38   Z   M 507.89 739.38   A 31.21 31.21 0.0 0 0 476.68 708.17   A 31.21 31.21 0.0 0 0 445.47 739.38   A 31.21 31.21 0.0 0 0 476.68 770.59   A 31.21 31.21 0.0 0 0 507.89 739.38   Z"
     id="path22" />
  <path
     fill="#000000"
     d="   M 757.11 739.38   A 54.85 54.85 0.0 0 1 702.26 794.23   A 54.85 54.85 0.0 0 1 647.41 739.38   A 54.85 54.85 0.0 0 1 702.26 684.53   A 54.85 54.85 0.0 0 1 757.11 739.38   Z   M 733.48 739.38   A 31.21 31.21 0.0 0 0 702.27 708.17   A 31.21 31.21 0.0 0 0 671.06 739.38   A 31.21 31.21 0.0 0 0 702.27 770.59   A 31.21 31.21 0.0 0 0 733.48 739.38   Z"
     id="path24" />
</svg>
