<?xml version="1.0" encoding="UTF-8" standalone="no"?>
<svg
   version="1.1"
   viewBox="0.00 0.00 490.00 490.00"
   id="svg14"
   sodipodi:docname="vector-find-icon.svg"
   inkscape:version="1.2.1 (9c6d41e410, 2022-07-14)"
   xmlns:inkscape="http://www.inkscape.org/namespaces/inkscape"
   xmlns:sodipodi="http://sodipodi.sourceforge.net/DTD/sodipodi-0.dtd"
   xmlns="http://www.w3.org/2000/svg"
   xmlns:svg="http://www.w3.org/2000/svg">
  <defs
     id="defs18" />
  <sodipodi:namedview
     id="namedview16"
     pagecolor="#ffffff"
     bordercolor="#999999"
     borderopacity="1"
     inkscape:showpageshadow="0"
     inkscape:pageopacity="0"
     inkscape:pagecheckerboard="0"
     inkscape:deskcolor="#d1d1d1"
     showgrid="false"
     inkscape:zoom="1.6408163"
     inkscape:cx="326.97139"
     inkscape:cy="245.30473"
     inkscape:window-width="1920"
     inkscape:window-height="991"
     inkscape:window-x="-9"
     inkscape:window-y="-9"
     inkscape:window-maximized="1"
     inkscape:current-layer="svg14" />
  <path
     fill="#141414"
     d="m 249.95726,34.774478 c 68.41,36.299999 89.43,122.410002 46.36,186.650002 -1.29,1.93 -3.47,4.57 -5.13,6.89 q -0.34,0.47 0.07,0.87 l 11.62,11.63 q 0.39,0.38 0.91,0.23 17.19,-5.08 29.06,6.76 44.05,43.99 88.04,88.04 8.45,8.47 10.46,12.22 c 13.11,24.54 -16.61,54.83 -41.09,42.16 q -4.64,-2.41 -14.06,-11.83 -40.63,-40.65 -81.26,-81.29 c -11.17,-11.16 -17.19,-19.36 -12.44,-34.92 q 0.15,-0.47 -0.21,-0.82 l -11.81,-11.71 a 0.36,0.36 0 0 0 -0.47,-0.03 c -40.48,31.13 -95.22,37.16 -140.75,12.46 -85.489997,-46.37 -91.279997,-166.470003 -10.16,-220.690002 38.77,-25.910001 89.76,-28.420001 130.86,-6.62 z m 39.75,113.880002 a 99.6,99.6 0 0 0 -99.6,-99.600003 99.6,99.6 0 0 0 -99.599997,99.600003 99.6,99.6 0 0 0 99.599997,99.6 99.6,99.6 0 0 0 99.6,-99.6 z"
     id="path10" />
</svg>
